<?xml version="1.0" encoding="UTF-8"?>
<svg id="Capa_1" data-name="Capa 1" xmlns="http://www.w3.org/2000/svg" viewBox="0 0 144 107">
  <defs>
    <style>
      .cls-1 {
        fill: #182c48;
      }
    </style>
  </defs>
  <path class="cls-1" d="M128.14,107.13c6.68-.4,12.86-6.68,13.43-13.63.63-7.73-4.96-14.13-13.96-15.88-.68-.13-1.38-.2-2.08-.26h0s-12.75-2.7-16.38-6.53c-3.63-3.83-4.99-15.98-4.99-15.98h0c-.02-.61-.05-1.23-.14-1.84,0-.01,0-.02,0-.03,1.5-7.33,2.83-12.47,4.74-16.15.37-.57.77-1.08,1.2-1.49,1.23-1.17,2.99-2.14,4.91-2.95,3.51-1.15,7.98-1.99,13.86-2.88,9.6-1.45,15.19-7.54,14.68-15.99-.4-6.68-6.68-12.87-13.63-13.43-7.73-.63-14.13,4.96-15.88,13.96-.13.68-.2,1.38-.26,2.08h0s-2.7,12.75-6.52,16.38c-3.83,3.63-15.98,4.99-15.98,4.99h0c-.62.03-1.23.06-1.84.15-8.2,1.16-13.8,6.25-14.64,12.94-.02.12-.05.24-.06.37-.01.11-.01.22-.02.33,0,.05,0,.1-.01.15-.31,3.64.55,6.87,2.43,9.51.08.12.18.24.27.36.13.17.26.35.4.52,2.67,3.34,6.75,5.68,10.91,5.89,7.41,1.52,12.59,2.84,16.29,4.77.57.37,1.08.77,1.49,1.2,1.16,1.23,2.14,2.99,2.95,4.91,1.15,3.51,1.99,7.98,2.88,13.86,1.45,9.6,7.54,15.19,15.99,14.68Z"/>
  <path class="cls-1" d="M14.64,107.13c-6.68-.4-12.86-6.68-13.43-13.63-.63-7.73,4.96-14.13,13.96-15.88.68-.13,1.38-.2,2.08-.26h0s12.75-2.7,16.38-6.53c3.63-3.83,4.99-15.98,4.99-15.98h0c.02-.61.05-1.23.14-1.84,0-.01,0-.02,0-.03-1.5-7.33-2.83-12.47-4.74-16.15-.37-.57-.77-1.08-1.2-1.49-1.23-1.17-2.99-2.14-4.91-2.95-3.51-1.15-7.98-1.99-13.86-2.88C4.47,28.06-1.11,21.97-.6,13.52-.2,6.84,6.08.65,13.03.09c7.73-.63,14.13,4.96,15.88,13.96.13.68.2,1.38.26,2.08h0s2.7,12.75,6.52,16.38c3.83,3.63,15.98,4.99,15.98,4.99h0c.62.03,1.23.06,1.84.15,8.2,1.16,13.8,6.25,14.64,12.94.02.12.05.24.06.37.01.11.01.22.02.33,0,.05,0,.1.01.15.31,3.64-.55,6.87-2.43,9.51-.08.12-.18.24-.27.36-.13.17-.26.35-.4.52-2.67,3.34-6.75,5.68-10.91,5.89-7.41,1.52-12.59,2.84-16.29,4.77-.57.37-1.08.77-1.49,1.2-1.16,1.23-2.14,2.99-2.95,4.91-1.15,3.51-1.99,7.98-2.88,13.86-1.45,9.6-7.54,15.19-15.99,14.68Z"/>
</svg>